TITLE ""
FILE "P1Q_t_0169-0178.mp3" MP3
  TRACK 01 AUDIO
    TITLE "P1Q_t_0169-0178_01"
    INDEX 01 00:00:00
  TRACK 02 AUDIO
    TITLE "P1Q_t_0169-0178_02"
    INDEX 01 00:01:10
  TRACK 03 AUDIO
    TITLE "P1Q_t_0169-0178_03"
    INDEX 01 00:01:31
  TRACK 04 AUDIO
    TITLE "P1Q_t_0169-0178_04"
    INDEX 01 00:03:30
  TRACK 05 AUDIO
    TITLE "P1Q_t_0169-0178_05"
    INDEX 01 00:03:48
  TRACK 06 AUDIO
    TITLE "P1Q_t_0169-0178_06"
    INDEX 01 00:08:39
  TRACK 07 AUDIO
    TITLE "P1Q_t_0169-0178_07"
    INDEX 01 00:09:11
  TRACK 08 AUDIO
    TITLE "P1Q_t_0169-0178_08"
    INDEX 01 00:10:44
  TRACK 09 AUDIO
    TITLE "P1Q_t_0169-0178_09"
    INDEX 01 00:10:64
  TRACK 10 AUDIO
    TITLE "P1Q_t_0169-0178_10"
    INDEX 01 00:12:12
  TRACK 11 AUDIO
    TITLE "P1Q_t_0169-0178_11"
    INDEX 01 00:12:31
  TRACK 12 AUDIO
    TITLE "P1Q_t_0169-0178_12"
    INDEX 01 00:17:17
  TRACK 13 AUDIO
    TITLE "P1Q_t_0169-0178_13"
    INDEX 01 00:17:64
  TRACK 14 AUDIO
    TITLE "P1Q_t_0169-0178_14"
    INDEX 01 00:18:71
  TRACK 15 AUDIO
    TITLE "P1Q_t_0169-0178_15"
    INDEX 01 00:19:17
  TRACK 16 AUDIO
    TITLE "P1Q_t_0169-0178_16"
    INDEX 01 00:23:15
  TRACK 17 AUDIO
    TITLE "P1Q_t_0169-0178_17"
    INDEX 01 00:23:35
  TRACK 18 AUDIO
    TITLE "P1Q_t_0169-0178_18"
    INDEX 01 00:28:52
  TRACK 19 AUDIO
    TITLE "P1Q_t_0169-0178_19"
    INDEX 01 00:29:26
  TRACK 20 AUDIO
    TITLE "P1Q_t_0169-0178_20"
    INDEX 01 00:30:68
  TRACK 21 AUDIO
    TITLE "P1Q_t_0169-0178_21"
    INDEX 01 00:31:13
  TRACK 22 AUDIO
    TITLE "P1Q_t_0169-0178_22"
    INDEX 01 00:32:26
  TRACK 23 AUDIO
    TITLE "P1Q_t_0169-0178_23"
    INDEX 01 00:32:48
  TRACK 24 AUDIO
    TITLE "P1Q_t_0169-0178_24"
    INDEX 01 00:39:53
  TRACK 25 AUDIO
    TITLE "P1Q_t_0169-0178_25"
    INDEX 01 00:40:25
  TRACK 26 AUDIO
    TITLE "P1Q_t_0169-0178_26"
    INDEX 01 00:41:33
  TRACK 27 AUDIO
    TITLE "P1Q_t_0169-0178_27"
    INDEX 01 00:41:54
  TRACK 28 AUDIO
    TITLE "P1Q_t_0169-0178_28"
    INDEX 01 00:43:73
  TRACK 29 AUDIO
    TITLE "P1Q_t_0169-0178_29"
    INDEX 01 00:44:15
  TRACK 30 AUDIO
    TITLE "P1Q_t_0169-0178_30"
    INDEX 01 00:48:17
  TRACK 31 AUDIO
    TITLE "P1Q_t_0169-0178_31"
    INDEX 01 00:48:64
  TRACK 32 AUDIO
    TITLE "P1Q_t_0169-0178_32"
    INDEX 01 00:50:06
  TRACK 33 AUDIO
    TITLE "P1Q_t_0169-0178_33"
    INDEX 01 00:50:26
  TRACK 34 AUDIO
    TITLE "P1Q_t_0169-0178_34"
    INDEX 01 00:52:29
  TRACK 35 AUDIO
    TITLE "P1Q_t_0169-0178_35"
    INDEX 01 00:52:48
  TRACK 36 AUDIO
    TITLE "P1Q_t_0169-0178_36"
    INDEX 01 00:58:29
  TRACK 37 AUDIO
    TITLE "P1Q_t_0169-0178_37"
    INDEX 01 00:59:09
  TRACK 38 AUDIO
    TITLE "P1Q_t_0169-0178_38"
    INDEX 01 01:00:24
  TRACK 39 AUDIO
    TITLE "P1Q_t_0169-0178_39"
    INDEX 01 01:00:46
  TRACK 40 AUDIO
    TITLE "P1Q_t_0169-0178_40"
    INDEX 01 01:03:17
  TRACK 41 AUDIO
    TITLE "P1Q_t_0169-0178_41"
    INDEX 01 01:03:36
  TRACK 42 AUDIO
    TITLE "P1Q_t_0169-0178_42"
    INDEX 01 01:09:04
  TRACK 43 AUDIO
    TITLE "P1Q_t_0169-0178_43"
    INDEX 01 01:09:51
  TRACK 44 AUDIO
    TITLE "P1Q_t_0169-0178_44"
    INDEX 01 01:10:62
  TRACK 45 AUDIO
    TITLE "P1Q_t_0169-0178_45"
    INDEX 01 01:11:08
  TRACK 46 AUDIO
    TITLE "P1Q_t_0169-0178_46"
    INDEX 01 01:13:27
  TRACK 47 AUDIO
    TITLE "P1Q_t_0169-0178_47"
    INDEX 01 01:13:46
  TRACK 48 AUDIO
    TITLE "P1Q_t_0169-0178_48"
    INDEX 01 01:19:08
  TRACK 49 AUDIO
    TITLE "P1Q_t_0169-0178_49"
    INDEX 01 01:19:53
  TRACK 50 AUDIO
    TITLE "P1Q_t_0169-0178_50"
    INDEX 01 01:20:66
  TRACK 51 AUDIO
    TITLE "P1Q_t_0169-0178_51"
    INDEX 01 01:21:13
  TRACK 52 AUDIO
    TITLE "P1Q_t_0169-0178_52"
    INDEX 01 01:24:50
  TRACK 53 AUDIO
    TITLE "P1Q_t_0169-0178_53"
    INDEX 01 01:24:70
  TRACK 54 AUDIO
    TITLE "P1Q_t_0169-0178_54"
    INDEX 01 01:28:50
  TRACK 55 AUDIO
    TITLE "P1Q_t_0169-0178_55"
    INDEX 01 01:29:22
  TRACK 56 AUDIO
    TITLE "P1Q_t_0169-0178_56"
    INDEX 01 01:30:47
  TRACK 57 AUDIO
    TITLE "P1Q_t_0169-0178_57"
    INDEX 01 01:30:70
  TRACK 58 AUDIO
    TITLE "P1Q_t_0169-0178_58"
    INDEX 01 01:33:10
  TRACK 59 AUDIO
    TITLE "P1Q_t_0169-0178_59"
    INDEX 01 01:33:30
  TRACK 60 AUDIO
    TITLE "P1Q_t_0169-0178_60"
    INDEX 01 01:39:05
